<svg width="721" height="536" viewBox="0 0 721 536" fill="none" xmlns="http://www.w3.org/2000/svg">
<path opacity="0.8" fill-rule="evenodd" clip-rule="evenodd" d="M65.0714 0H64.979L64.8928 0.0329741L-16.8824 31.3L-16.9597 31.3295L-17.0233 31.3824L-111.626 109.951L-112 110.261L-111.7 110.644L303.483 640.223V641.073V642.521L304.377 641.381L304.384 641.372L304.392 641.381L305.285 642.521V641.073V640.223L720.469 110.644L720.769 110.261L720.395 109.951L625.792 31.3824L625.728 31.3295L625.651 31.3L543.876 0.0329741L543.789 0H543.697H304.785H303.983H65.0714ZM303.983 1H72.7705L304.384 31.2105L535.998 1H304.785H303.983ZM305.285 180.491V33.0403L448.005 110.314L305.285 180.491ZM305.285 637.205V182.188H523.661L305.285 637.205ZM303.483 33.0403L160.764 110.314L303.483 180.491V33.0403ZM303.483 182.188H85.1072L303.483 637.205V182.188ZM-13.9961 31.267L65.132 1.01214L297.086 31.267H-13.9961ZM-14.3526 32.267H302.811L159.653 109.778L-14.3526 32.267ZM-109.922 109.835H157.323L-16.6235 32.3502L-109.922 109.835ZM302.352 637.159L-109.832 111.405L83.9499 182.088L302.352 637.159ZM85.5679 181.188H302.635L159.765 110.937L85.5679 181.188ZM-108.477 110.835L84.1934 181.113L158.419 110.835H-108.477ZM622.765 31.267L543.637 1.01214L311.683 31.267H622.765ZM623.121 32.267H305.957L449.116 109.778L623.121 32.267ZM718.69 109.835H451.446L625.392 32.3502L718.69 109.835ZM306.416 637.159L718.601 111.405L524.819 182.088L306.416 637.159ZM523.201 181.188H306.134L449.003 110.937L523.201 181.188ZM717.245 110.835L524.575 181.113L450.35 110.835H717.245Z" fill="#EEEEEE"/>
</svg>
